<svg width="34" height="37" viewBox="0 0 34 37" fill="none" xmlns="http://www.w3.org/2000/svg">
<path fill-rule="evenodd" clip-rule="evenodd" d="M24.8008 2.55105C24.3692 1.15181 23.1412 0 21.2414 0C20.3655 0 19.6328 0.182995 19.0456 0.551749C18.4521 0.924539 18.082 1.44034 17.858 1.97358C17.4849 2.86215 17.4967 3.88905 17.5034 4.47891C17.5041 4.54937 17.5049 4.6136 17.5049 4.67062V35.4957C17.5049 35.5447 17.5086 35.5935 17.5159 35.6403C17.5804 36.0572 17.9202 36.383 18.3435 36.4259C18.3749 36.4291 18.4069 36.4308 18.439 36.4308C20.4128 36.4308 21.8517 35.5305 22.5831 34.2171L22.6059 34.1756C23.232 34.3187 23.8877 34.3159 24.5299 34.1755C25.2929 34.0084 26.0153 33.6518 26.6391 33.1479C27.2627 32.6441 27.7758 32.0031 28.1361 31.2808C28.4685 30.6148 28.6652 29.8914 28.7071 29.1624C29.3738 29.0557 30.012 28.8099 30.58 28.4396C31.2445 28.0063 31.7921 27.4161 32.1744 26.721C32.5564 26.0258 32.7615 25.2471 32.7713 24.454C32.781 23.661 32.5949 22.8776 32.2295 22.1738C32.0417 21.8118 31.8093 21.4764 31.5388 21.1753C31.9673 20.791 32.3232 20.3233 32.5897 19.8006C32.9248 19.1435 33.1116 18.4131 33.1363 17.6721C33.161 16.9312 33.0231 16.1941 32.7277 15.5261C32.432 14.8576 31.9855 14.274 31.4179 13.8359C31.1683 13.6433 30.8993 13.4821 30.6162 13.3551C30.9962 12.6656 31.261 11.903 31.4 11.1038C31.5909 10.0057 31.5406 8.86369 31.2557 7.77607C30.9708 6.68851 30.4576 5.67954 29.7537 4.8404C29.0493 4.00096 28.1716 3.35232 27.1897 2.96575C26.4222 2.66365 25.6131 2.53043 24.808 2.57527L24.8008 2.55105ZM26.1199 18.9322C26.8629 18.9526 27.5889 18.774 28.2275 18.4052C28.6742 18.1472 28.8272 17.5759 28.5692 17.1292C28.311 16.6823 27.7397 16.5295 27.293 16.7875C26.9627 16.9782 26.5795 17.076 26.1709 17.0647C25.7612 17.0535 25.3332 16.9325 24.9276 16.6978C24.5218 16.4628 24.1568 16.1239 23.8711 15.7073C23.5855 15.2905 23.3932 14.8163 23.3105 14.3298C23.224 13.8212 22.7416 13.479 22.233 13.5656C21.7243 13.6521 21.3822 14.1346 21.4687 14.6431C21.5975 15.3996 21.8938 16.1269 22.3302 16.7636C22.7666 17.4003 23.3351 17.9344 23.9914 18.3144C24.6483 18.6948 25.3784 18.9121 26.1199 18.9322ZM22.7326 21.0316C22.9224 20.552 22.6874 20.0091 22.2078 19.8193C21.7281 19.6295 21.1853 19.8643 20.9953 20.3441C20.8195 20.7883 20.7603 21.2696 20.835 21.7434C20.9098 22.2177 21.1147 22.6577 21.4258 23.0222C21.7363 23.386 22.1378 23.6578 22.5852 23.8239C23.0687 24.0034 23.6064 23.757 23.7859 23.2733C23.9655 22.7896 23.719 22.2521 23.2354 22.0726C23.0687 22.0106 22.9385 21.9168 22.8468 21.8093C22.756 21.703 22.7008 21.581 22.6805 21.4525C22.6601 21.3236 22.6739 21.1796 22.7326 21.0316ZM26.6569 8.99256C26.4205 8.65191 26.0975 8.38107 25.7143 8.21324C25.2418 8.0062 24.6909 8.22144 24.4839 8.694C24.2769 9.16653 24.4921 9.71742 24.9646 9.92446C25.0218 9.94944 25.0765 9.99209 25.1221 10.0578C25.1686 10.1247 25.2067 10.2179 25.2196 10.3356C25.2325 10.4536 25.2187 10.5864 25.1722 10.7195C25.1258 10.8525 25.0511 10.973 24.9582 11.0692C24.8652 11.1654 24.763 11.2283 24.667 11.2619C24.1801 11.4324 23.9236 11.9653 24.094 12.4522C24.2644 12.9391 24.7974 13.1957 25.2843 13.0253C25.6714 12.8898 26.0185 12.6606 26.3017 12.3673C26.5851 12.0741 26.8018 11.7199 26.9362 11.3351C27.0705 10.9502 27.1211 10.5379 27.0767 10.132C27.0322 9.72564 26.8926 9.33206 26.6569 8.99256ZM21.5474 29.3978C21.7372 28.9182 21.5024 28.3753 21.0226 28.1855C20.5428 27.9957 20.0001 28.2305 19.8103 28.7103C19.6343 29.1545 19.5753 29.636 19.6498 30.1098C19.7247 30.5841 19.9295 31.0239 20.2407 31.3886C20.5511 31.7523 20.9525 32.024 21.4 32.1903C21.8837 32.3698 22.4212 32.1232 22.6007 31.6395C22.7804 31.1558 22.5338 30.6183 22.0501 30.4388C21.8835 30.3769 21.7533 30.283 21.6617 30.1757C21.5709 30.0692 21.5156 29.9472 21.4953 29.8189C21.4751 29.6898 21.4887 29.5458 21.5474 29.3978ZM23.1083 27.1202C23.0865 26.6048 23.4864 26.1693 24.0019 26.1474C24.4428 26.1287 24.8497 26.0108 25.1897 25.8156C25.529 25.6209 25.7922 25.3555 25.9665 25.0487C26.1405 24.7423 26.2268 24.3935 26.2146 24.0283C26.1973 23.5126 26.6012 23.0807 27.1168 23.0633C27.6325 23.0461 28.0644 23.45 28.0818 23.9657C28.1055 24.6702 27.9379 25.3607 27.591 25.9716C27.2442 26.5818 26.7353 27.0828 26.1196 27.4361C25.5047 27.7889 24.8034 27.9833 24.0811 28.014C23.5657 28.0358 23.1302 27.6357 23.1083 27.1202ZM22.4258 5.87668C22.9389 5.82295 23.3114 5.36344 23.2576 4.85034C23.2038 4.33725 22.7444 3.96487 22.2312 4.0186C21.7559 4.06839 21.3019 4.23873 20.9165 4.52426C20.5307 4.81012 20.2355 5.19527 20.0565 5.6399C19.8777 6.08346 19.8226 6.56507 19.8824 7.0386C19.9472 7.55042 20.4147 7.91286 20.9264 7.84815C21.4383 7.78341 21.8007 7.31603 21.7359 6.80421C21.7137 6.62783 21.7366 6.46893 21.7893 6.33806C21.8416 6.20828 21.9242 6.10287 22.0287 6.02545C22.1336 5.94767 22.2676 5.89325 22.4258 5.87668Z" fill="#A66CF2"/>
<path fill-rule="evenodd" clip-rule="evenodd" d="M1.7213 13.8359C1.9709 13.6433 2.23978 13.4821 2.52289 13.3551C2.14287 12.6656 1.87825 11.903 1.73922 11.1038C1.54817 10.0057 1.59846 8.86369 1.88339 7.77607C2.16831 6.68851 2.6816 5.67954 3.38555 4.8404C4.08973 4.00096 4.9676 3.35232 5.94953 2.96575C6.71686 2.66365 7.52603 2.53043 8.33104 2.57527C8.75551 1.16687 9.98491 0 11.8977 0C12.7735 0 13.5063 0.182995 14.0935 0.551749C14.687 0.924539 15.0571 1.44034 15.2811 1.97358C15.6542 2.86215 15.6424 3.88905 15.6357 4.47891C15.635 4.54912 15.6342 4.61378 15.6342 4.67062V35.4948C15.6342 36.0106 15.2159 36.4308 14.7001 36.4308C12.7263 36.4308 11.2874 35.5305 10.556 34.2171L10.5332 34.1756C9.90724 34.3187 9.25142 34.3159 8.60926 34.1755C7.84633 34.0084 7.12391 33.6518 6.50016 33.1479C5.87641 32.6441 5.36339 32.0031 5.00299 31.2808C4.67066 30.6148 4.4739 29.8914 4.43218 29.1624C3.7654 29.0557 3.12704 28.8099 2.55913 28.4396C1.89464 28.0063 1.34705 27.4161 0.964866 26.721C0.58266 26.0258 0.37762 25.2471 0.367942 24.454C0.358265 23.661 0.544267 22.8776 0.909584 22.1738C1.09751 21.8118 1.32988 21.4764 1.60029 21.1753C1.17183 20.791 0.815891 20.3233 0.549442 19.8006C0.214391 19.1435 0.0275664 18.4131 0.00284954 17.6721C-0.0218674 16.9312 0.116084 16.1941 0.41151 15.5261C0.707085 14.8576 1.15361 14.274 1.7213 13.8359ZM8.9028 18.5388C8.16279 18.6083 7.42661 18.4781 6.7651 18.1523C6.3023 17.9243 6.11188 17.3644 6.33983 16.9015C6.56777 16.4387 7.12774 16.2483 7.59054 16.4763C7.93269 16.6448 8.32159 16.7169 8.72842 16.6788C9.13663 16.6405 9.55571 16.4914 9.94476 16.2304C10.3341 15.969 10.676 15.607 10.9335 15.1722C11.191 14.7375 11.3514 14.2515 11.4019 13.7607C11.4523 13.2698 11.3905 12.7977 11.2335 12.3851C11.0501 11.9029 11.2923 11.3633 11.7745 11.1798C12.2567 10.9964 12.7962 11.2386 12.9796 11.7208C13.2464 12.4217 13.3387 13.1882 13.2602 13.9516C13.182 14.7151 12.9344 15.4601 12.5409 16.1243C12.1475 16.7884 11.6156 17.359 10.9858 17.7818C10.3556 18.2046 9.64145 18.4697 8.9028 18.5388ZM12.5403 28.8283C13.0562 28.8278 13.474 28.4091 13.4734 27.8931C13.4728 27.3773 13.0542 26.9595 12.5383 26.9601C11.8153 26.9608 11.1065 27.1262 10.4777 27.4533C9.84791 27.7808 9.31871 28.2604 8.94711 28.8558C8.5752 29.4518 8.37936 30.135 8.3739 30.8397C8.36992 31.3557 8.78491 31.7772 9.30079 31.7811C9.81669 31.785 10.2381 31.3701 10.2421 30.8543C10.2449 30.4888 10.3455 30.1438 10.532 29.8449C10.7189 29.5456 10.9928 29.2911 11.3398 29.1106C11.6876 28.9298 12.099 28.8287 12.5403 28.8283ZM4.62427 21.8024C4.6301 22.3184 5.053 22.7319 5.56888 22.7261C5.72796 22.7242 5.86733 22.7629 5.98058 22.8279C6.09333 22.8927 6.18745 22.988 6.25437 23.111C6.32184 23.2348 6.36296 23.3901 6.36115 23.5677C6.35591 24.0837 6.76986 24.5062 7.28574 24.5114C7.80162 24.5166 8.22407 24.1026 8.2293 23.5868C8.23415 23.1095 8.12382 22.6375 7.89514 22.2176C7.66591 21.7965 7.32834 21.448 6.91207 21.2085C6.49629 20.9694 6.02566 20.8526 5.5478 20.8578C5.03194 20.8638 4.61846 21.2866 4.62427 21.8024ZM12.6515 24.1783C13.1229 23.9685 13.3348 23.4164 13.125 22.9451C12.9152 22.4737 12.3631 22.2616 11.8918 22.4715C11.5325 22.6316 11.2185 22.8813 10.9873 23.206C10.7558 23.5311 10.6218 23.9113 10.5946 24.3074C10.5675 24.7023 10.6476 25.0933 10.8139 25.4464C11.0338 25.9131 11.5904 26.1132 12.0571 25.8933C12.5238 25.6734 12.7239 25.1169 12.504 24.6502C12.4654 24.5682 12.4545 24.494 12.4585 24.4354C12.4625 24.3778 12.4808 24.3296 12.5092 24.2896C12.5379 24.2493 12.5835 24.2085 12.6515 24.1783ZM6.62597 7.87978C7.02755 7.77643 7.44902 7.78248 7.84868 7.90578C8.34165 8.05786 8.618 8.58078 8.46593 9.07375C8.31384 9.56673 7.79091 9.84308 7.29794 9.691C7.23847 9.67266 7.16909 9.66911 7.09159 9.68906C7.01273 9.70935 6.92302 9.75501 6.83635 9.83566C6.7494 9.91656 6.67309 10.0261 6.6213 10.1571C6.56951 10.2882 6.54728 10.4282 6.55477 10.5618C6.56226 10.6953 6.59858 10.8098 6.64923 10.8979C6.90643 11.3451 6.75239 11.9161 6.30519 12.1733C5.85797 12.4305 5.28692 12.2765 5.02972 11.8293C4.8253 11.4739 4.71229 11.0735 4.68946 10.6664C4.66663 10.2593 4.73401 9.84954 4.88383 9.47046C5.03363 9.09139 5.26469 8.74616 5.56367 8.46796C5.8629 8.18949 6.22573 7.98277 6.62597 7.87978ZM11.046 5.81871C10.5329 5.76496 10.1605 5.30546 10.2142 4.79237C10.268 4.27927 10.7275 3.90688 11.2406 3.96063C11.6496 4.00346 12.0421 4.15029 12.3761 4.3978C12.7107 4.64564 12.9662 4.97946 13.1212 5.36398C13.2757 5.74742 13.3226 6.16202 13.2713 6.56754C13.2066 7.07936 12.7392 7.4418 12.2274 7.37707C11.7156 7.31235 11.3531 6.84496 11.4179 6.33313C11.4316 6.22477 11.4168 6.13289 11.3883 6.06214C11.3602 5.99247 11.3172 5.93839 11.264 5.89899C11.2104 5.85923 11.1379 5.82833 11.046 5.81871Z" fill="#A66CF2"/>
</svg>
