<svg width="112" height="30" viewBox="0 0 112 30" fill="none" xmlns="http://www.w3.org/2000/svg">
<path d="M8.52 21.276C7.24 21.276 6.152 21.028 5.256 20.532C4.368 20.036 3.652 19.372 3.108 18.54C2.564 17.7 2.164 16.764 1.908 15.732C1.66 14.7 1.536 13.656 1.536 12.6C1.536 11.568 1.664 10.54 1.92 9.516C2.176 8.484 2.58 7.548 3.132 6.708C3.692 5.86 4.416 5.184 5.304 4.68C6.192 4.168 7.264 3.912 8.52 3.912C9.568 3.912 10.46 4.072 11.196 4.392C11.932 4.704 12.536 5.108 13.008 5.604C13.488 6.1 13.856 6.616 14.112 7.152L11.928 8.232C11.664 7.832 11.38 7.48 11.076 7.176C10.772 6.864 10.416 6.624 10.008 6.456C9.6 6.28 9.104 6.192 8.52 6.192C7.688 6.192 6.984 6.388 6.408 6.78C5.832 7.164 5.372 7.672 5.028 8.304C4.684 8.936 4.436 9.628 4.284 10.38C4.132 11.132 4.056 11.872 4.056 12.6C4.056 13.384 4.14 14.156 4.308 14.916C4.476 15.668 4.744 16.352 5.112 16.968C5.48 17.576 5.944 18.064 6.504 18.432C7.064 18.792 7.736 18.972 8.52 18.972C9.384 18.972 10.084 18.776 10.62 18.384C11.156 17.984 11.616 17.468 12 16.836L14.232 17.664C13.92 18.344 13.508 18.956 12.996 19.5C12.484 20.044 11.86 20.476 11.124 20.796C10.388 21.116 9.52 21.276 8.52 21.276ZM20.9773 21.288C19.6413 21.288 18.5893 20.924 17.8213 20.196C17.0613 19.46 16.6813 18.46 16.6813 17.196C16.6813 16.38 16.8733 15.668 17.2573 15.06C17.6413 14.452 18.1813 13.984 18.8773 13.656C19.5813 13.32 20.4053 13.152 21.3493 13.152C21.9253 13.152 22.4693 13.212 22.9813 13.332C23.5013 13.452 23.9773 13.632 24.4093 13.872V13.044C24.4093 12.18 24.2013 11.544 23.7853 11.136C23.3693 10.72 22.7333 10.512 21.8773 10.512C21.2853 10.512 20.6733 10.62 20.0413 10.836C19.4173 11.052 18.8133 11.356 18.2293 11.748L17.5333 9.792C18.1813 9.368 18.9093 9.04 19.7173 8.808C20.5333 8.568 21.3453 8.448 22.1533 8.448C23.6733 8.448 24.8093 8.824 25.5613 9.576C26.3213 10.328 26.7013 11.452 26.7013 12.948V21H24.4093V19.92C23.9533 20.36 23.4293 20.7 22.8373 20.94C22.2453 21.172 21.6253 21.288 20.9773 21.288ZM21.4093 19.224C21.9533 19.224 22.4853 19.1 23.0053 18.852C23.5333 18.596 24.0013 18.24 24.4093 17.784V15.888C24.0253 15.664 23.5893 15.488 23.1013 15.36C22.6133 15.232 22.1453 15.168 21.6973 15.168C20.8493 15.168 20.1813 15.352 19.6933 15.72C19.2053 16.08 18.9613 16.576 18.9613 17.208C18.9613 17.832 19.1773 18.324 19.6093 18.684C20.0413 19.044 20.6413 19.224 21.4093 19.224ZM30.5263 21V8.736H32.9143V10.248C33.1783 9.672 33.5543 9.228 34.0423 8.916C34.5303 8.604 35.0863 8.448 35.7103 8.448C36.4943 8.448 37.1583 8.688 37.7023 9.168L37.3543 11.388C37.0743 11.18 36.7863 11.028 36.4903 10.932C36.1943 10.836 35.8743 10.788 35.5303 10.788C34.9943 10.788 34.5303 10.928 34.1383 11.208C33.7543 11.48 33.4543 11.868 33.2383 12.372C33.0223 12.876 32.9143 13.472 32.9143 14.16V21H30.5263ZM44.3154 21.288C43.1714 21.288 42.1834 21.016 41.3514 20.472C40.5274 19.928 39.8914 19.172 39.4434 18.204C39.0034 17.236 38.7834 16.12 38.7834 14.856C38.7834 13.512 39.0114 12.364 39.4674 11.412C39.9314 10.452 40.5754 9.72 41.3994 9.216C42.2314 8.704 43.2034 8.448 44.3154 8.448C45.2594 8.448 46.1194 8.656 46.8954 9.072C47.6794 9.48 48.3034 10.116 48.7674 10.98C49.2394 11.836 49.4754 12.936 49.4754 14.28C49.4754 14.472 49.4674 14.704 49.4514 14.976C49.4434 15.24 49.4234 15.512 49.3914 15.792H41.1954C41.2594 16.472 41.4234 17.072 41.6874 17.592C41.9594 18.104 42.3194 18.504 42.7674 18.792C43.2154 19.08 43.7434 19.224 44.3514 19.224C44.8874 19.224 45.3754 19.132 45.8154 18.948C46.2554 18.756 46.6674 18.46 47.0514 18.06L48.4434 19.56C47.9634 20.064 47.3754 20.48 46.6794 20.808C45.9834 21.128 45.1954 21.288 44.3154 21.288ZM41.1834 13.8H47.0994C47.0834 13.152 46.9634 12.584 46.7394 12.096C46.5234 11.6 46.2074 11.212 45.7914 10.932C45.3834 10.652 44.8834 10.512 44.2914 10.512C43.4674 10.512 42.7594 10.776 42.1674 11.304C41.5754 11.832 41.2474 12.664 41.1834 13.8ZM58.9106 21.276C57.6306 21.276 56.5426 21.028 55.6466 20.532C54.7586 20.036 54.0426 19.372 53.4986 18.54C52.9546 17.7 52.5546 16.764 52.2986 15.732C52.0506 14.7 51.9266 13.656 51.9266 12.6C51.9266 11.568 52.0546 10.54 52.3106 9.516C52.5666 8.484 52.9706 7.548 53.5226 6.708C54.0826 5.86 54.8066 5.184 55.6946 4.68C56.5826 4.168 57.6546 3.912 58.9106 3.912C59.9586 3.912 60.8506 4.072 61.5866 4.392C62.3226 4.704 62.9266 5.108 63.3986 5.604C63.8786 6.1 64.2466 6.616 64.5026 7.152L62.3186 8.232C62.0546 7.832 61.7706 7.48 61.4666 7.176C61.1626 6.864 60.8066 6.624 60.3986 6.456C59.9906 6.28 59.4946 6.192 58.9106 6.192C58.0786 6.192 57.3746 6.388 56.7986 6.78C56.2226 7.164 55.7626 7.672 55.4186 8.304C55.0746 8.936 54.8266 9.628 54.6746 10.38C54.5226 11.132 54.4466 11.872 54.4466 12.6C54.4466 13.384 54.5306 14.156 54.6986 14.916C54.8666 15.668 55.1346 16.352 55.5026 16.968C55.8706 17.576 56.3346 18.064 56.8946 18.432C57.4546 18.792 58.1266 18.972 58.9106 18.972C59.7746 18.972 60.4746 18.776 61.0106 18.384C61.5466 17.984 62.0066 17.468 62.3906 16.836L64.6226 17.664C64.3106 18.344 63.8986 18.956 63.3866 19.5C62.8746 20.044 62.2506 20.476 61.5146 20.796C60.7786 21.116 59.9106 21.276 58.9106 21.276ZM85.0888 21V8.736H87.4768V10.248C87.7408 9.672 88.1168 9.228 88.6048 8.916C89.0928 8.604 89.6488 8.448 90.2728 8.448C91.0568 8.448 91.7208 8.688 92.2648 9.168L91.9168 11.388C91.6368 11.18 91.3488 11.028 91.0528 10.932C90.7568 10.836 90.4368 10.788 90.0928 10.788C89.5568 10.788 89.0928 10.928 88.7008 11.208C88.3168 11.48 88.0168 11.868 87.8008 12.372C87.5848 12.876 87.4768 13.472 87.4768 14.16V21H85.0888ZM98.8779 21.288C97.7339 21.288 96.7459 21.016 95.9139 20.472C95.0899 19.928 94.4539 19.172 94.0059 18.204C93.5659 17.236 93.3459 16.12 93.3459 14.856C93.3459 13.512 93.5739 12.364 94.0299 11.412C94.4939 10.452 95.1379 9.72 95.9619 9.216C96.7939 8.704 97.7659 8.448 98.8779 8.448C99.8219 8.448 100.682 8.656 101.458 9.072C102.242 9.48 102.866 10.116 103.33 10.98C103.802 11.836 104.038 12.936 104.038 14.28C104.038 14.472 104.03 14.704 104.014 14.976C104.006 15.24 103.986 15.512 103.954 15.792H95.7579C95.8219 16.472 95.9859 17.072 96.2499 17.592C96.5219 18.104 96.8819 18.504 97.3299 18.792C97.7779 19.08 98.3059 19.224 98.9139 19.224C99.4499 19.224 99.9379 19.132 100.378 18.948C100.818 18.756 101.23 18.46 101.614 18.06L103.006 19.56C102.526 20.064 101.938 20.48 101.242 20.808C100.546 21.128 99.7579 21.288 98.8779 21.288ZM95.7459 13.8H101.662C101.646 13.152 101.526 12.584 101.302 12.096C101.086 11.6 100.77 11.212 100.354 10.932C99.9459 10.652 99.4459 10.512 98.8539 10.512C98.0299 10.512 97.3219 10.776 96.7299 11.304C96.1379 11.832 95.8099 12.664 95.7459 13.8Z" fill="#007DFE"/>
<path d="M70.553 14.5C70.553 18.1835 73.1748 21.2379 76.5997 21.7913C76.0153 21.9274 75.406 22 74.781 22C70.4811 22 67 18.6431 67 14.5C67 10.3569 70.4811 7 74.7779 7C75.406 7 76.0153 7.07258 76.5966 7.20867C73.1717 7.7621 70.553 10.8165 70.553 14.5ZM79.8465 17.5333C77.4184 19.2087 74.2342 18.9698 72.3342 17.0917C72.5061 17.5181 72.7311 17.9294 73.0123 18.3165C74.9373 20.9839 78.7121 21.622 81.4402 19.7379C84.1682 17.8538 84.8182 14.1643 82.8933 11.494C82.612 11.1038 82.2902 10.7591 81.9402 10.4597C83.1089 12.8427 82.2745 15.8579 79.8465 17.5333ZM73.0092 10.1542C72.9654 10.1845 72.9248 10.2177 72.8842 10.248C74.8935 9.70968 77.1309 10.369 78.4746 12.0776C79.5902 13.499 79.8152 15.3014 79.2371 16.8558C81.0089 15.1562 81.3496 12.5585 79.934 10.753C78.3715 8.77218 75.2747 8.50302 73.0092 10.1542ZM76.2497 13.5323C76.1122 13.5323 75.9997 13.4234 75.9997 13.2903V12.0806C75.9997 11.9476 75.8872 11.8387 75.7497 11.8387H74.2498C74.1123 11.8387 73.9998 11.9476 73.9998 12.0806V13.2903C73.9998 13.4234 73.8873 13.5323 73.7498 13.5323H72.4998C72.3623 13.5323 72.2498 13.6411 72.2498 13.7742V15.2258C72.2498 15.3589 72.3623 15.4677 72.4998 15.4677H73.7498C73.8873 15.4677 73.9998 15.5766 73.9998 15.7097V16.9194C73.9998 17.0524 74.1123 17.1613 74.2498 17.1613H75.7497C75.8872 17.1613 75.9997 17.0524 75.9997 16.9194V15.7097C75.9997 15.5766 76.1122 15.4677 76.2497 15.4677H77.4997C77.6372 15.4677 77.7497 15.3589 77.7497 15.2258V13.7742C77.7497 13.6411 77.6372 13.5323 77.4997 13.5323H76.2497Z" fill="#007DFE"/>
</svg>
