<svg width="21" height="20" viewBox="0 0 21 20" fill="none" xmlns="http://www.w3.org/2000/svg">
<path d="M2.23076 10C2.23076 5.30558 6.06887 1.5 10.8034 1.5C15.5379 1.5 19.3761 5.30558 19.3761 10C19.3761 14.6944 15.5379 18.5 10.8034 18.5C6.06887 18.5 2.23076 14.6944 2.23076 10ZM10.8034 0C5.23336 0 0.717941 4.47715 0.717941 10C0.717941 15.5228 5.23336 20 10.8034 20C16.3734 20 20.8889 15.5228 20.8889 10C20.8889 4.47715 16.3734 0 10.8034 0ZM10.7965 4.64827C10.7464 4.28233 10.4297 4 10.047 4C9.62946 4 9.29059 4.336 9.29059 4.75V10.75L9.29755 10.8517C9.34757 11.2177 9.66426 11.5 10.047 11.5H14.0812L14.1838 11.4931C14.5529 11.4435 14.8376 11.1295 14.8376 10.75C14.8376 10.336 14.4987 10 14.0812 10H10.8034V4.75L10.7965 4.64827Z" fill="white"/>
</svg>
