<svg width="17" height="16" viewBox="0 0 17 16" fill="none" xmlns="http://www.w3.org/2000/svg">
<path d="M0.18672 0.175734C-0.0396097 0.388751 -0.0601798 0.722079 0.124993 0.956967L0.18672 1.02426L3.61611 4.25192C1.98241 5.3315 0.761405 6.94393 0.254049 8.85153C0.168555 9.17297 0.376126 9.49881 0.717664 9.57929C1.05921 9.65969 1.40539 9.46441 1.49089 9.14289C1.94094 7.45081 3.05245 6.03158 4.53404 5.11562L6.07223 6.56345C5.47084 7.14065 5.1 7.93145 5.1 8.80369C5.1 10.5711 6.62223 12.0037 8.5 12.0037C9.42685 12.0037 10.267 11.6547 10.8803 11.0887L15.9118 15.8243C16.1607 16.0586 16.5643 16.0586 16.8133 15.8243C17.0396 15.6113 17.0602 15.2779 16.875 15.0431L16.8133 14.9758L11.6168 10.0844L11.6178 10.0832L10.5977 9.12489L8.1583 6.82945L8.16001 6.82881L5.71096 4.52626L5.712 4.5248L4.74872 3.62039L1.08828 0.175734C0.839325 -0.0585781 0.435677 -0.0585781 0.18672 0.175734ZM6.97349 7.41241L9.97833 10.2405C9.59583 10.5891 9.07452 10.8037 8.5 10.8037C7.32641 10.8037 6.375 9.90825 6.375 8.80369C6.375 8.26297 6.60301 7.77233 6.97349 7.41241ZM8.5 2.8C7.64975 2.8 6.82474 2.91846 6.04443 3.14L7.09589 4.12896C7.55132 4.04426 8.02094 4 8.5 4C11.8346 4 14.7134 6.14421 15.51 9.14657C15.5954 9.46801 15.9414 9.66353 16.283 9.58329C16.6246 9.50297 16.8324 9.17729 16.747 8.85577C15.8095 5.32218 12.4232 2.8 8.5 2.8ZM8.6655 5.60743L11.8966 8.64801C11.8101 7.00249 10.4101 5.68612 8.6655 5.60743Z" fill="#212121" fill-opacity="0.8"/>
</svg>
