<svg width="31" height="37" viewBox="0 0 31 37" fill="none" xmlns="http://www.w3.org/2000/svg">
<path d="M30.8127 17.3626C27.8941 11.668 22.116 7.81506 15.5 7.81506C8.88397 7.81506 3.10428 11.6707 0.187263 17.3632C0.064146 17.6067 0 17.8758 0 18.1487C0 18.4216 0.064146 18.6906 0.187263 18.9342C3.1059 24.6288 8.88397 28.4817 15.5 28.4817C22.116 28.4817 27.8957 24.6261 30.8127 18.9336C30.9359 18.6901 31 18.421 31 18.1481C31 17.8752 30.9359 17.6062 30.8127 17.3626ZM15.5 25.8984C13.9672 25.8984 12.4688 25.4439 11.1943 24.5923C9.91984 23.7407 8.9265 22.5303 8.33992 21.1142C7.75334 19.6981 7.59987 18.1398 7.8989 16.6364C8.19794 15.1331 8.93606 13.7522 10.0199 12.6683C11.1038 11.5845 12.4847 10.8463 13.988 10.5473C15.4914 10.2483 17.0497 10.4018 18.4658 10.9883C19.8819 11.5749 21.0923 12.5682 21.9439 13.8427C22.7955 15.1172 23.25 16.6156 23.25 18.1484C23.2505 19.1663 23.0504 20.1743 22.6611 21.1148C22.2718 22.0553 21.701 22.9098 20.9812 23.6296C20.2614 24.3493 19.4069 24.9202 18.4664 25.3095C17.5259 25.6988 16.5179 25.8989 15.5 25.8984ZM15.5 12.9817C15.0388 12.9882 14.5807 13.0568 14.1378 13.1857C14.5028 13.6817 14.678 14.2922 14.6316 14.9063C14.5851 15.5204 14.3201 16.0975 13.8846 16.533C13.4491 16.9685 12.872 17.2335 12.2579 17.2799C11.6438 17.3264 11.0333 17.1512 10.5373 16.7862C10.2548 17.8269 10.3058 18.9299 10.6831 19.9401C11.0604 20.9502 11.7449 21.8166 12.6404 22.4173C13.5358 23.0181 14.5971 23.3229 15.6749 23.2888C16.7527 23.2548 17.7926 22.8836 18.6484 22.2275C19.5041 21.5715 20.1326 20.6636 20.4454 19.6317C20.7581 18.5997 20.7394 17.4957 20.3918 16.4749C20.0442 15.4542 19.3853 14.5681 18.5078 13.9415C17.6302 13.3149 16.5783 12.9792 15.5 12.9817Z" fill="#45BB65"/>
<line x1="3.62195" y1="3.67007" x2="7.32282" y2="8.65452" stroke="#34A853" stroke-opacity="0.35"/>
<line x1="15.8464" y1="0.633972" x2="16.2837" y2="7.0275" stroke="#34A853" stroke-opacity="0.35"/>
<line x1="27.6414" y1="2.37814" x2="24.1106" y2="8.54896" stroke="#34A853" stroke-opacity="0.35"/>
<line y1="-0.5" x2="6.20815" y2="-0.5" transform="matrix(0.595052 -0.803687 -0.803687 -0.595052 2.6002 32.1757)" stroke="#34A853" stroke-opacity="0.35"/>
<line y1="-0.5" x2="6.40846" y2="-0.5" transform="matrix(0.0668967 -0.99776 -0.99776 -0.0668967 14.7317 35.4594)" stroke="#34A853" stroke-opacity="0.35"/>
<line y1="-0.5" x2="7.10955" y2="-0.5" transform="matrix(-0.497796 -0.867294 -0.867294 0.497796 26.5895 33.9817)" stroke="#34A853" stroke-opacity="0.35"/>
</svg>
