<svg width="29" height="28" viewBox="0 0 29 28" fill="none" xmlns="http://www.w3.org/2000/svg">
<path d="M14.7607 0C22.5587 0 28.8803 6.26801 28.8803 14C28.8803 21.7319 22.5587 28 14.7607 28C6.9626 28 0.641022 21.7319 0.641022 14C0.641022 6.26801 6.9626 0 14.7607 0ZM14.7607 2.1C8.13231 2.1 2.75897 7.42781 2.75897 14C2.75897 20.5722 8.13231 25.9 14.7607 25.9C21.389 25.9 26.7624 20.5722 26.7624 14C26.7624 7.42781 21.389 2.1 14.7607 2.1ZM14.2623 7.77431L14.3648 7.65656C14.7408 7.28378 15.3292 7.24989 15.7437 7.55489L15.8625 7.65656L21.5114 13.2577C21.8874 13.6305 21.9216 14.2139 21.6139 14.625L21.5113 14.7428L15.8613 20.3428C15.4478 20.7528 14.7772 20.7526 14.3637 20.3424C13.9878 19.9696 13.9538 19.3864 14.2614 18.9753L14.3639 18.8576L18.2073 15.0486L8.75882 15.049C8.22271 15.049 7.77963 14.6539 7.70951 14.1415L7.69984 13.999C7.69984 13.4674 8.09824 13.0281 8.61512 12.9585L8.75882 12.949L18.2045 12.9486L14.3648 9.14148C13.9889 8.7687 13.9547 8.18538 14.2623 7.77431Z" fill="#79B9F3"/>
</svg>
