<svg width="16" height="20" viewBox="0 0 16 20" fill="none" xmlns="http://www.w3.org/2000/svg">
<path d="M10.2902 0.219651L14.7852 4.71441C15.0513 4.98047 15.0757 5.39676 14.8583 5.69038L14.7858 5.77451L10.2908 10.2794C9.99821 10.5726 9.52331 10.5731 9.23011 10.2805C8.96361 10.0145 8.93891 9.5979 9.15641 9.3041L9.22901 9.2199L12.4458 5.997L0.75 5.99766C0.3703 5.99766 0.0565102 5.71551 0.00684023 5.34943L0 5.24766C0 4.86797 0.28215 4.55417 0.64823 4.50451L0.75 4.49766L12.4478 4.497L9.22961 1.28035C8.96331 1.01409 8.93911 0.597431 9.15691 0.303811L9.22951 0.219691C9.49581 -0.046589 9.91251 -0.0708092 10.2061 0.147041L10.2902 0.219651ZM15.008 14.6491L15.0148 14.7509C15.0148 15.1306 14.7327 15.4444 14.3666 15.494L14.2648 15.5009L2.56884 15.5L5.79001 18.7194C6.05641 18.9856 6.08071 19.4023 5.86301 19.696L5.79041 19.7801C5.52431 20.0465 5.10763 20.0709 4.81393 19.8531L4.72978 19.7806L0.22978 15.2843C-0.0365998 15.0182 -0.0609798 14.6015 0.15675 14.3078L0.22934 14.2237L4.72934 9.7199C5.02211 9.4269 5.49698 9.4267 5.79001 9.7194C6.05641 9.9856 6.08071 10.4023 5.86301 10.696L5.79041 10.7801L2.57284 14L14.2648 14.0009C14.6445 14.0009 14.9583 14.283 15.008 14.6491Z" fill="white"/>
</svg>
