<svg width="21" height="22" viewBox="0 0 21 22" fill="none" xmlns="http://www.w3.org/2000/svg">
<path d="M20.99 11.2058C20.99 10.3045 20.9185 9.64674 20.7639 8.96466H10.7092V13.0328H16.6111C16.4921 14.0438 15.8496 15.5663 14.4217 16.5894L14.4016 16.7256L17.5808 19.2466L17.801 19.2691C19.8238 17.3568 20.99 14.5432 20.99 11.2058Z" fill="#007DFE"/>
<path d="M10.7092 21.9244C13.6006 21.9244 16.028 20.95 17.801 19.2691L14.4217 16.5894C13.5173 17.235 12.3036 17.6857 10.7092 17.6857C7.8772 17.6857 5.4736 15.7734 4.61679 13.1303L4.4912 13.1412L1.1855 15.76L1.14227 15.883C2.90332 19.464 6.52065 21.9244 10.7092 21.9244Z" fill="#34A853"/>
<path d="M4.6168 13.1303C4.39072 12.4482 4.25988 11.7174 4.25988 10.9622C4.25988 10.207 4.39072 9.47621 4.60491 8.79413L4.59892 8.64886L1.2518 5.98804L1.14229 6.04136C0.416473 7.52737 0 9.19609 0 10.9622C0 12.7284 0.416473 14.397 1.14229 15.883L4.6168 13.1303Z" fill="#FBBC05"/>
<path d="M10.7092 4.23869C12.7201 4.23869 14.0765 5.12785 14.85 5.87089L17.8724 2.85018C16.0162 1.08405 13.6006 0 10.7092 0C6.52065 0 2.90332 2.46039 1.14227 6.04135L4.60489 8.79412C5.4736 6.15102 7.8772 4.23869 10.7092 4.23869Z" fill="#EB4335"/>
</svg>
