<svg width="34" height="37" viewBox="0 0 34 37" fill="none" xmlns="http://www.w3.org/2000/svg">
<path fill-rule="evenodd" clip-rule="evenodd" d="M13.885 0H17.9683V2.69887C19.2671 2.61978 20.5259 2.6954 21.6571 2.93419C16.8589 4.82275 14.6512 9.67614 14.2898 10.4709L14.2675 10.5196C13.095 10.3416 11.8247 10.1936 10.6227 10.2046C9.38401 10.3102 8.1822 10.4932 6.20293 11.608C5.92384 11.8053 5.54757 12.1288 5.03624 12.622C4.99908 12.5953 4.95927 12.5705 4.90721 12.5379C4.86556 12.5119 4.81585 12.4809 4.75337 12.4401C4.47071 12.2554 4.05799 12.0055 3.55473 11.7559C2.518 11.2416 1.24628 10.8029 -3.05176e-05 10.8029V6.84387C2.15497 6.84387 4.09249 7.57549 5.41466 8.23147C5.87331 8.45901 6.27582 8.68645 6.60891 8.88857C6.90362 8.25955 7.29245 7.67451 7.75733 7.13511L5.515 3.61647L9.1093 1.28233L11.178 4.52866C12.03 4.0893 12.9438 3.72472 13.885 3.4382V0ZM24.8653 8.87193C23.3773 9.5617 22.0892 10.6955 20.9279 12.878C20.9279 12.878 18.3515 11.6998 16.2613 11.0874C17.8655 7.83509 19.7323 6.00517 22.4851 4.72915C25.148 3.4948 28.3248 3.17875 32.0986 3.30916L31.92 8.16665C28.4379 8.0463 26.4432 8.14052 24.8653 8.87193ZM7.02582 13.4947C-0.388054 20.1076 10.2031 36.6397 18.6762 36.6397C27.1492 36.6397 38.8164 20.1223 30.3266 12.55C30.1307 12.3753 29.9592 12.2181 29.8 12.0721C29.0983 11.4287 28.6312 11.0005 27.3364 10.2306C24.731 10.2306 23.1609 12.8369 22.4461 14.4247C22.4098 14.5053 22.3649 14.5806 22.3131 14.6496L20.6653 19.2337L20.0715 21.3653C20.0088 21.5904 20.0251 21.8301 20.1179 22.0446L20.8115 23.6475L24.4027 23.2307L24.6381 25.2586L21.2605 25.6507L21.48 28.8681L19.4432 29.0071L19.1693 24.9934L18.2442 22.8553C17.9658 22.212 17.9166 21.4926 18.1047 20.8175L18.1224 20.7538L16.0461 21.6927L14.6885 25.1245L12.79 24.3735L13.8652 21.6556L10.5879 20.8835L11.056 18.8963L15.1449 19.8596L18.8775 18.1715L20.1327 14.6798C16.8988 13.1604 10.2576 10.612 7.02582 13.4947Z" fill="#E78F87"/>
</svg>
