<svg width="16" height="19" viewBox="0 0 16 19" fill="none" xmlns="http://www.w3.org/2000/svg">
<path d="M8 13.5C8.8284 13.5 9.5 12.8284 9.5 12C9.5 11.1716 8.8284 10.5 8 10.5C7.1716 10.5 6.5 11.1716 6.5 12C6.5 12.8284 7.1716 13.5 8 13.5ZM4 4C4 1.79086 5.79086 0 8 0C10.2091 0 12 1.79086 12 4V5H12.75C14.5449 5 16 6.45507 16 8.25V15.75C16 17.5449 14.5449 19 12.75 19H3.25C1.45507 19 0 17.5449 0 15.75V8.25C0 6.45507 1.45507 5 3.25 5H4V4ZM8 1.5C6.6193 1.5 5.5 2.61929 5.5 4V5H10.5V4C10.5 2.61929 9.3807 1.5 8 1.5ZM3.25 6.5C2.2835 6.5 1.5 7.2835 1.5 8.25V15.75C1.5 16.7165 2.2835 17.5 3.25 17.5H12.75C13.7165 17.5 14.5 16.7165 14.5 15.75V8.25C14.5 7.2835 13.7165 6.5 12.75 6.5H3.25Z" fill="#212121" fill-opacity="0.7"/>
</svg>
