<svg width="22" height="19" viewBox="0 0 22 19" fill="none" xmlns="http://www.w3.org/2000/svg">
<path d="M7.8254 10.2948C7.27312 10.2948 6.8254 9.84709 6.8254 9.2948C6.8254 8.74252 7.27312 8.2948 7.8254 8.2948V10.2948ZM20.5238 9.2948L21.1498 8.51493C21.3862 8.70473 21.5238 8.99158 21.5238 9.2948C21.5238 9.59803 21.3862 9.88487 21.1498 10.0747L20.5238 9.2948ZM16.0815 7.01161C15.6508 6.66591 15.5819 6.03651 15.9276 5.6058C16.2733 5.17509 16.9027 5.10617 17.3334 5.45187L16.0815 7.01161ZM17.3334 13.1377C16.9027 13.4834 16.2733 13.4145 15.9276 12.9838C15.5819 12.5531 15.6508 11.9237 16.0815 11.578L17.3334 13.1377ZM13.0112 17.5714V16.5714V17.5714ZM13.8793 16.7079L14.8793 16.7079V16.7079L13.8793 16.7079ZM1.4762 16.7079L2.4762 16.7079V16.7079L1.4762 16.7079ZM2.34431 1.46983V0.469831V1.46983ZM1.4762 2.33333L0.476196 2.33333V2.33333H1.4762ZM13.0112 1.46983V2.46983V1.46983ZM13.8793 2.33333H14.8793H13.8793ZM12.8793 13.0657C12.8793 12.5134 13.327 12.0657 13.8793 12.0657C14.4316 12.0657 14.8793 12.5134 14.8793 13.0657L12.8793 13.0657ZM14.8793 5.84564C14.8793 6.39792 14.4316 6.84564 13.8793 6.84564C13.327 6.84564 12.8793 6.39792 12.8793 5.84564H14.8793ZM7.8254 8.2948H20.5238V10.2948H7.8254V8.2948ZM19.8979 10.0747L16.0815 7.01161L17.3334 5.45187L21.1498 8.51493L19.8979 10.0747ZM21.1498 10.0747L17.3334 13.1377L16.0815 11.578L19.8979 8.51493L21.1498 10.0747ZM13.0112 16.5714C12.9434 16.5714 12.8793 16.6275 12.8793 16.7079L14.8793 16.7079C14.8793 17.7421 14.0379 18.5714 13.0112 18.5714V16.5714ZM2.34432 16.5714L13.0112 16.5714V18.5714L2.34432 18.5714L2.34432 16.5714ZM2.4762 16.7079C2.4762 16.6275 2.41211 16.5714 2.34432 16.5714L2.34432 18.5714C1.31763 18.5714 0.476198 17.7421 0.476198 16.7079L2.4762 16.7079ZM2.34431 2.46983C2.41211 2.46983 2.4762 2.41374 2.4762 2.33333H0.476196C0.476196 1.29912 1.31762 0.469831 2.34431 0.469831L2.34431 2.46983ZM13.0112 2.46983H2.34431V0.469831H13.0112V2.46983ZM12.8793 2.33333C12.8793 2.41375 12.9434 2.46983 13.0112 2.46983V0.469831C14.0379 0.469831 14.8793 1.29912 14.8793 2.33333H12.8793ZM2.4762 2.33333L2.4762 16.7079L0.476198 16.7079L0.476196 2.33333L2.4762 2.33333ZM12.8793 16.7079L12.8793 13.0657L14.8793 13.0657L14.8793 16.7079L12.8793 16.7079ZM12.8793 5.84564V2.33333H14.8793V5.84564H12.8793Z" fill="#007DFE"/>
</svg>
