<svg width="18" height="21" viewBox="0 0 18 21" fill="none" xmlns="http://www.w3.org/2000/svg">
<path d="M3.6 6.6C3.6 6.26863 3.86863 6 4.2 6H10.2C10.5313 6 10.8 6.26863 10.8 6.6C10.8 6.93137 10.5313 7.2 10.2 7.2H4.2C3.86863 7.2 3.6 6.93137 3.6 6.6ZM4.2 9.6C3.86863 9.6 3.6 9.86868 3.6 10.2C3.6 10.5313 3.86863 10.8 4.2 10.8H10.2C10.5313 10.8 10.8 10.5313 10.8 10.2C10.8 9.86868 10.5313 9.6 10.2 9.6H4.2ZM3.6 13.8C3.6 13.4687 3.86863 13.2 4.2 13.2H6.6C6.93137 13.2 7.2 13.4687 7.2 13.8C7.2 14.1313 6.93137 14.4 6.6 14.4H4.2C3.86863 14.4 3.6 14.1313 3.6 13.8ZM2.4 0.6C2.4 0.268632 2.66863 0 3 0C3.33137 0 3.6 0.268632 3.6 0.6V1.2H6.6V0.6C6.6 0.268632 6.86863 0 7.2 0C7.53132 0 7.8 0.268632 7.8 0.6V1.2H10.8V0.6C10.8 0.268632 11.0687 0 11.4 0C11.7313 0 12 0.268632 12 0.6V1.2H12.6C13.5941 1.2 14.4 2.00588 14.4 3V8.67796C14.0086 8.84567 13.642 9.08928 13.3224 9.40878L13.2 9.53119V3C13.2 2.66863 12.9313 2.4 12.6 2.4H1.8C1.46863 2.4 1.2 2.66863 1.2 3V17.4C1.2 17.7313 1.46863 18 1.8 18H6.26456L6.06859 18.7838C6.03354 18.9241 6.01218 19.0631 6.00343 19.2H1.8C0.805884 19.2 0 18.3941 0 17.4V3C0 2.00588 0.805884 1.2 1.8 1.2H2.4V0.6ZM14.171 10.2574L8.37576 16.0526C8.03784 16.3906 7.79808 16.8139 7.68216 17.2775L7.23288 19.075C7.03741 19.8566 7.74552 20.5646 8.5272 20.3693L10.3247 19.9199C10.7882 19.804 11.2116 19.5643 11.5495 19.2264L17.3448 13.4311C18.2212 12.5546 18.2212 11.1337 17.3448 10.2574C16.4684 9.38089 15.0474 9.38089 14.171 10.2574Z" fill="#FBBC05"/>
</svg>
