<svg width="14" height="20" viewBox="0 0 14 20" fill="none" xmlns="http://www.w3.org/2000/svg">
<path d="M13.25 9C13.6297 9 13.9435 9.2822 13.9932 9.6482L14 9.75V10.25C14 13.8094 11.245 16.7254 7.751 16.9817L7.75 19.25C7.75 19.6642 7.4142 20 7 20C6.6203 20 6.3065 19.7178 6.2568 19.3518L6.25 19.25V16.9818C2.83323 16.7316 0.12283 13.938 0.00405979 10.4863L0 10.25V9.75C0 9.3358 0.33579 9 0.75 9C1.1297 9 1.44349 9.2822 1.49315 9.6482L1.5 9.75V10.25C1.5 13.077 3.73445 15.3821 6.5336 15.4956L6.75 15.5H7.25C10.077 15.5 12.3821 13.2656 12.4956 10.4664L12.5 10.25V9.75C12.5 9.3358 12.8358 9 13.25 9ZM7 0C9.2091 0 11 1.79086 11 4V10C11 12.2091 9.2091 14 7 14C4.79086 14 3 12.2091 3 10V4C3 1.79086 4.79086 0 7 0ZM7 1.5C5.6193 1.5 4.5 2.61929 4.5 4V10C4.5 11.3807 5.6193 12.5 7 12.5C8.3807 12.5 9.5 11.3807 9.5 10V4C9.5 2.61929 8.3807 1.5 7 1.5Z" fill="#007DFE"/>
</svg>
