<svg width="38" height="38" viewBox="0 0 38 38" fill="none" xmlns="http://www.w3.org/2000/svg">
<circle cx="19.4248" cy="19.3848" r="17.5848" fill="#007DFE" stroke="white" stroke-width="2"/>
<path d="M24.0881 9.34714C25.5721 7.8629 27.9784 7.86284 29.4626 9.34699C30.9466 10.831 30.9466 13.2371 29.4627 14.7212L28.5156 15.6684L23.1412 10.2941L24.0881 9.34714ZM22.0149 11.4206L11.3973 22.0394C10.9658 22.471 10.6625 23.0138 10.5211 23.6075L9.35761 28.4942C9.29355 28.7633 9.37366 29.0463 9.56923 29.2418C9.76482 29.4375 10.0479 29.5175 10.3169 29.4535L15.2034 28.2901C15.7973 28.1486 16.3402 27.8452 16.7719 27.4135L22.3483 21.8365C22.1752 21.4071 22.0798 20.9381 22.0798 20.4468C22.0798 18.394 23.7439 16.7298 25.7967 16.7298C26.2879 16.7298 26.7569 16.8251 27.186 16.9982L27.3893 16.7949L22.0149 11.4206ZM28.4517 20.4468C28.4517 21.9131 27.263 23.1017 25.7967 23.1017C24.3305 23.1017 23.1418 21.9131 23.1418 20.4468C23.1418 18.9805 24.3305 17.7918 25.7967 17.7918C27.263 17.7918 28.4517 18.9805 28.4517 20.4468ZM30.5757 26.155C30.5757 27.8079 29.2103 29.4737 25.7967 29.4737C22.3832 29.4737 21.0178 27.8142 21.0178 26.155V26.0456C21.0178 25.0058 21.8607 24.1637 22.9004 24.1637H28.6931C29.7328 24.1637 30.5757 25.0059 30.5757 26.0456V26.155Z" fill="white"/>
</svg>
