<svg width="40" height="40" viewBox="0 0 40 40" fill="none" xmlns="http://www.w3.org/2000/svg">
<circle cx="20" cy="20" r="20" fill="#007DFE"/>
<path d="M19.9961 11C20.4299 11 20.7886 11.3062 20.8454 11.7037L20.8533 11.8142L20.8547 19.6861H29.143C29.6163 19.6861 30 20.0507 30 20.5004C30 20.9126 29.6775 21.2534 29.2593 21.3073L29.143 21.3147H20.8547L20.857 29.1855C20.8571 29.6352 20.4735 30 20.0002 30C19.5663 30 19.2076 29.6938 19.1508 29.2963L19.1429 29.1858L19.1406 21.3147H10.857C10.3837 21.3147 10 20.9501 10 20.5004C10 20.0881 10.3224 19.7474 10.7407 19.6934L10.857 19.6861H19.1406L19.1392 11.8145C19.1391 11.3647 19.5227 11 19.9961 11Z" fill="white"/>
</svg>
