<svg width="124" height="124" viewBox="0 0 124 124" fill="none" xmlns="http://www.w3.org/2000/svg">
<circle cx="62" cy="62" r="62" fill="#272F40" fill-opacity="0.34"/>
<path d="M80.4336 68.4073C84.4124 68.4073 87.6376 71.6324 87.6376 75.6113V78.5532C87.6376 80.39 87.0635 82.1807 85.9955 83.675C81.0435 90.6045 72.9573 94.0375 62.0013 94.0375C51.0427 94.0375 42.9608 90.6032 38.0207 83.6699C36.9573 82.1775 36.3859 80.3907 36.3859 78.558V75.6113C36.3859 71.6324 39.6111 68.4073 43.5897 68.4073H80.4336ZM62.0013 29.9823C70.847 29.9823 78.018 37.1532 78.018 45.999C78.018 54.8447 70.847 62.0157 62.0013 62.0157C53.1554 62.0157 45.9845 54.8447 45.9845 45.999C45.9845 37.1532 53.1554 29.9823 62.0013 29.9823Z" fill="white"/>
<circle cx="100.425" cy="105.385" r="17.5848" fill="#007DFE" stroke="white" stroke-width="2"/>
<path d="M105.088 95.3471C106.572 93.8629 108.978 93.8628 110.463 95.347C111.947 96.831 111.947 99.2371 110.463 100.721L109.516 101.668L104.141 96.2941L105.088 95.3471ZM103.015 97.4206L92.3973 108.039C91.9658 108.471 91.6625 109.014 91.5211 109.607L90.3576 114.494C90.2936 114.763 90.3737 115.046 90.5692 115.242C90.7648 115.437 91.0479 115.518 91.3169 115.453L96.2034 114.29C96.7973 114.149 97.3402 113.845 97.7719 113.414L103.348 107.836C103.175 107.407 103.08 106.938 103.08 106.447C103.08 104.394 104.744 102.73 106.797 102.73C107.288 102.73 107.757 102.825 108.186 102.998L108.389 102.795L103.015 97.4206ZM109.452 106.447C109.452 107.913 108.263 109.102 106.797 109.102C105.33 109.102 104.142 107.913 104.142 106.447C104.142 104.98 105.33 103.792 106.797 103.792C108.263 103.792 109.452 104.98 109.452 106.447ZM111.576 112.155C111.576 113.808 110.21 115.474 106.797 115.474C103.383 115.474 102.018 113.814 102.018 112.155V112.046C102.018 111.006 102.861 110.164 103.9 110.164H109.693C110.733 110.164 111.576 111.006 111.576 112.046V112.155Z" fill="white"/>
</svg>
