<svg width="24" height="24" viewBox="0 0 24 24" fill="none" xmlns="http://www.w3.org/2000/svg">
<path d="M13.73 3.50989L15.49 7.02989C15.73 7.51989 16.37 7.98989 16.91 8.07989L20.1 8.60989C22.14 8.94989 22.62 10.4299 21.15 11.8899L18.67 14.3699C18.25 14.7899 18.02 15.5999 18.15 16.1799L18.86 19.2499C19.42 21.6799 18.13 22.6199 15.98 21.3499L12.99 19.5799C12.45 19.2599 11.56 19.2599 11.01 19.5799L8.02 21.3499C5.88 22.6199 4.58 21.6699 5.14 19.2499L5.85 16.1799C5.98 15.5999 5.75 14.7899 5.33 14.3699L2.85 11.8899C1.39 10.4299 1.86 8.94989 3.9 8.60989L7.09 8.07989C7.62 7.98989 8.26 7.51989 8.5 7.02989L10.26 3.50989C11.22 1.59989 12.78 1.59989 13.73 3.50989Z" stroke="#007DFE" stroke-width="1.5" stroke-linecap="round" stroke-linejoin="round"/>
</svg>
