<svg width="20" height="19" viewBox="0 0 20 19" fill="none" xmlns="http://www.w3.org/2000/svg">
<path d="M10.8197 2.05832L9.99895 2.93619L9.17565 2.05753C7.07663 -0.18282 3.67336 -0.18282 1.5743 2.05753C-0.524768 4.29788 -0.524768 7.9302 1.5743 10.1706L9.46965 18.5973C9.76255 18.9099 10.2375 18.9099 10.5304 18.5973L18.4318 10.169C20.5262 7.92124 20.5298 4.29908 18.4304 2.05832C16.3275 -0.186108 12.9226 -0.186108 10.8197 2.05832ZM17.3682 9.04009L9.99995 16.8993L2.63496 9.03849C1.12167 7.42334 1.12167 4.80472 2.63496 3.18958C4.14824 1.57444 6.60175 1.57444 8.11505 3.18958L9.47245 4.63839C9.77035 4.95631 10.2551 4.95011 10.5457 4.62468L11.8804 3.19037C13.3975 1.57116 15.8526 1.57116 17.3697 3.19037C18.8834 4.8059 18.8808 7.41683 17.3682 9.04009Z" fill="#E78F87"/>
</svg>
