<svg width="20" height="20" viewBox="0 0 20 20" fill="none" xmlns="http://www.w3.org/2000/svg">
<path d="M14.7487 0C16.5435 0 17.9984 1.45495 17.9984 3.24971V8.0115C17.492 7.9678 16.9774 8.0412 16.4985 8.2317V5.49952H1.49987V14.7487C1.49987 15.7151 2.2833 16.4985 3.24971 16.4985H8.5402C8.5333 16.5241 8.5266 16.5497 8.5202 16.5754L8.1644 17.9984H3.24971C1.45495 17.9984 0 16.5435 0 14.7487V3.24971C0 1.45495 1.45495 0 3.24971 0H14.7487ZM14.7487 1.49987H3.24971C2.2833 1.49987 1.49987 2.2833 1.49987 3.24971V3.99965H16.4985V3.24971C16.4985 2.2833 15.7151 1.49987 14.7487 1.49987ZM10.1965 15.5705L16.0984 9.6686C16.991 8.7761 18.4381 8.7761 19.3306 9.6686C20.2231 10.5611 20.2231 12.0082 19.3306 12.9008L13.4287 18.8027C13.0846 19.1468 12.6534 19.3909 12.1813 19.5089L10.3508 19.9666C9.5547 20.1656 8.8336 19.4445 9.0327 18.6484L9.4903 16.8179C9.6083 16.3458 9.8524 15.9146 10.1965 15.5705ZM6 12.75C6 12.0596 5.44036 11.5 4.75 11.5C4.05964 11.5 3.5 12.0596 3.5 12.75C3.5 13.4404 4.05964 14 4.75 14C5.44036 14 6 13.4404 6 12.75ZM10.25 12.75C10.25 12.0596 9.6904 11.5 9 11.5C8.3096 11.5 7.75 12.0596 7.75 12.75C7.75 13.4404 8.3096 14 9 14C9.6904 14 10.25 13.4404 10.25 12.75ZM6 8.75C6 8.0596 5.44036 7.5 4.75 7.5C4.05964 7.5 3.5 8.0596 3.5 8.75C3.5 9.4404 4.05964 10 4.75 10C5.44036 10 6 9.4404 6 8.75ZM10.25 8.75C10.25 8.0596 9.6904 7.5 9 7.5C8.3096 7.5 7.75 8.0596 7.75 8.75C7.75 9.4404 8.3096 10 9 10C9.6904 10 10.25 9.4404 10.25 8.75ZM14.5 8.75C14.5 8.0596 13.9404 7.5 13.25 7.5C12.5596 7.5 12 8.0596 12 8.75C12 9.4404 12.5596 10 13.25 10C13.9404 10 14.5 9.4404 14.5 8.75Z" fill="#007DFE"/>
</svg>
