<svg width="27" height="27" viewBox="0 0 27 27" fill="none" xmlns="http://www.w3.org/2000/svg">
<path d="M11.03 1.57141V0.571411C10.4777 0.571411 10.03 1.01913 10.03 1.57141L11.03 1.57141ZM15.9224 1.57141H16.9224C16.9224 1.01913 16.4746 0.571411 15.9224 0.571411V1.57141ZM15.9224 25.3809V26.3809C16.4746 26.3809 16.9224 25.9332 16.9224 25.3809H15.9224ZM11.03 25.3809H10.03C10.03 25.9332 10.4777 26.3809 11.03 26.3809V25.3809ZM25.3809 11.03H26.3809C26.3809 10.4777 25.9332 10.03 25.3809 10.03L25.3809 11.03ZM25.3809 15.9224V16.9224C25.6462 16.9224 25.9005 16.817 26.088 16.6295C26.2756 16.4419 26.3809 16.1876 26.3809 15.9224H25.3809ZM1.57141 15.9224H0.571411C0.571411 16.4746 1.01913 16.9224 1.57141 16.9224L1.57141 15.9224ZM1.57141 11.03L1.57141 10.03C1.30619 10.03 1.05184 10.1353 0.864304 10.3229C0.676768 10.5104 0.571411 10.7648 0.571411 11.03H1.57141ZM20.1644 3.32852L20.8715 2.62142C20.4826 2.23248 19.8525 2.23067 19.4614 2.61736L20.1644 3.32852ZM23.6238 6.78795L24.335 7.49098C24.7217 7.09981 24.7199 6.46978 24.3309 6.08084L23.6238 6.78795ZM6.78795 23.6238L6.08084 24.3309C6.46995 24.72 7.10031 24.7217 7.49141 24.3346L6.78795 23.6238ZM3.32852 20.1644L2.61779 19.4609C2.23069 19.852 2.23231 20.4824 2.62142 20.8715L3.32852 20.1644ZM23.6238 20.1644L24.3309 20.8715C24.7163 20.4861 24.7221 19.8631 24.344 19.4706L23.6238 20.1644ZM20.1644 23.6238L19.4515 24.3251C19.6384 24.5152 19.8936 24.6227 20.1603 24.6238C20.4269 24.6249 20.683 24.5195 20.8715 24.3309L20.1644 23.6238ZM3.32852 6.78795L2.62142 6.08084C2.43388 6.26838 2.32852 6.52273 2.32852 6.78795C2.32852 7.05316 2.43388 7.30752 2.62142 7.49505L3.32852 6.78795ZM6.78795 3.32852L7.49506 2.62141C7.10453 2.23089 6.47137 2.23089 6.08085 2.62141L6.78795 3.32852ZM21.3668 15.9224V14.9224H20.6489L20.4193 15.6025L21.3668 15.9224ZM20.7942 17.227L19.9173 16.7463L19.5638 17.3911L20.074 17.9208L20.7942 17.227ZM17.227 20.6374L17.9399 19.9361L17.434 19.4218L16.7864 19.7396L17.227 20.6374ZM15.9224 21.1431L15.6429 20.1829L14.9224 20.3927V21.1431H15.9224ZM11.03 21.0406H12.03V20.3227L11.3498 20.0931L11.03 21.0406ZM9.88844 20.555L10.3491 19.6675L9.70262 19.332L9.18497 19.8443L9.88844 20.555ZM6.39731 17.0639L7.10804 17.7674L7.62039 17.2497L7.28489 16.6033L6.39731 17.0639ZM5.91172 15.9224L6.8592 15.6025L6.62962 14.9224L5.91172 14.9224L5.91172 15.9224ZM5.80926 11.03V12.03H6.55967L6.7694 11.3095L5.80926 11.03ZM6.2989 9.75832L7.1986 10.1948L7.50928 9.55449L7.00601 9.05122L6.2989 9.75832ZM9.65603 6.1966L8.94892 6.9037L9.48456 7.43935L10.1452 7.06876L9.65603 6.1966ZM11.03 5.58556L11.3498 6.53305L12.03 6.30346V5.58556H11.03ZM15.9224 5.4831H14.9224V6.23351L15.6429 6.44325L15.9224 5.4831ZM17.3901 6.07115L16.9294 6.95873L17.5755 7.29402L18.0931 6.78231L17.3901 6.07115ZM20.8812 9.56228L20.17 8.85925L19.6583 9.37688L19.9936 10.0229L20.8812 9.56228ZM21.4692 11.03L20.5091 11.3095L20.7188 12.03L21.4692 12.03L21.4692 11.03ZM11.03 2.57141H15.9224V0.571411H11.03V2.57141ZM15.9224 24.3809H11.03V26.3809H15.9224V24.3809ZM24.3809 11.03V15.9224H26.3809V11.03H24.3809ZM2.57141 15.9224V11.03H0.571411V15.9224H2.57141ZM19.4573 4.03563L22.9167 7.49506L24.3309 6.08084L20.8715 2.62142L19.4573 4.03563ZM7.49506 22.9167L4.03563 19.4573L2.62142 20.8715L6.08084 24.3309L7.49506 22.9167ZM22.9167 19.4573L19.4573 22.9167L20.8715 24.3309L24.3309 20.8715L22.9167 19.4573ZM4.03563 7.49505L7.49506 4.03563L6.08085 2.62141L2.62142 6.08084L4.03563 7.49505ZM20.4193 15.6025C20.285 16.0005 20.1165 16.3829 19.9173 16.7463L21.6711 17.7077C21.9261 17.2424 22.142 16.7524 22.3143 16.2422L20.4193 15.6025ZM16.7864 19.7396C16.4215 19.9187 16.0393 20.0676 15.6429 20.1829L16.2018 22.1032C16.7102 21.9553 17.2001 21.7645 17.6676 21.5351L16.7864 19.7396ZM11.3498 20.0931C11.0037 19.9763 10.6694 19.8337 10.3491 19.6675L9.4278 21.4426C9.83797 21.6555 10.2664 21.8383 10.7102 21.9881L11.3498 20.0931ZM7.28489 16.6033C7.11867 16.283 6.97602 15.9486 6.8592 15.6025L4.96424 16.2422C5.11403 16.6859 5.29685 17.1144 5.50972 17.5246L7.28489 16.6033ZM6.7694 11.3095C6.88175 10.9235 7.0258 10.551 7.1986 10.1948L5.3992 9.32181C5.17784 9.77807 4.99317 10.2556 4.84911 10.7505L6.7694 11.3095ZM10.1452 7.06876C10.5267 6.85479 10.9296 6.67488 11.3498 6.53305L10.7102 4.63808C10.1714 4.81995 9.65516 5.05051 9.16681 5.32443L10.1452 7.06876ZM15.6429 6.44325C16.0914 6.5738 16.5218 6.74717 16.9294 6.95873L17.8507 5.18356C17.3286 4.91262 16.777 4.69037 16.2018 4.52295L15.6429 6.44325ZM19.9936 10.0229C20.2052 10.4306 20.3785 10.861 20.5091 11.3095L22.4294 10.7505C22.262 10.1754 22.0397 9.62371 21.7688 9.10164L19.9936 10.0229ZM12.03 5.58556V1.57141H10.03V5.58556H12.03ZM14.9224 1.57141V5.4831H16.9224V1.57141H14.9224ZM6.08085 4.03563L8.94892 6.9037L10.3631 5.48949L7.49506 2.62141L6.08085 4.03563ZM7.00601 9.05122L4.03563 6.08084L2.62142 7.49505L5.59179 10.4654L7.00601 9.05122ZM18.0931 6.78231L20.8674 4.03968L19.4614 2.61736L16.687 5.35999L18.0931 6.78231ZM22.9127 6.08492L20.17 8.85925L21.5924 10.2653L24.335 7.49098L22.9127 6.08492ZM21.4692 12.03H25.3809L25.3809 10.03H21.4692L21.4692 12.03ZM25.3809 14.9224L21.3668 14.9224V16.9224L25.3809 16.9224L25.3809 14.9224ZM20.074 17.9208L22.9036 20.8582L24.344 19.4706L21.5144 16.5332L20.074 17.9208ZM20.8773 22.9226L17.9399 19.9361L16.5141 21.3386L19.4515 24.3251L20.8773 22.9226ZM14.9224 21.1431V25.3809H16.9224V21.1431H14.9224ZM12.03 25.3809V21.0406H10.03V25.3809H12.03ZM9.18497 19.8443L6.08449 22.9131L7.49141 24.3346L10.5919 21.2658L9.18497 19.8443ZM4.03925 20.8679L7.10804 17.7674L5.68657 16.3604L2.61779 19.4609L4.03925 20.8679ZM5.91172 14.9224L1.57141 14.9224L1.57141 16.9224L5.91172 16.9224L5.91172 14.9224ZM1.57141 12.03H5.80926V10.03H1.57141L1.57141 12.03ZM15.8746 12.9531C16.1431 14.2949 15.2812 15.5479 13.9598 15.7759L14.3 17.7468C16.744 17.325 18.3223 14.9923 17.8357 12.5606L15.8746 12.9531ZM13.9598 15.7759C12.6175 16.0076 11.2904 15.0989 11.0179 13.7373L9.05682 14.1297C9.53945 16.5415 11.8769 18.165 14.3 17.7468L13.9598 15.7759ZM11.0179 13.7373C10.7494 12.3955 11.6114 11.1425 12.9327 10.9144L12.5926 8.94355C10.1485 9.36534 8.57021 11.6981 9.05682 14.1297L11.0179 13.7373ZM12.9327 10.9144C14.275 10.6828 15.6021 11.5915 15.8746 12.9531L17.8357 12.5606C17.3531 10.1489 15.0156 8.52539 12.5926 8.94355L12.9327 10.9144Z" fill="#007DFE"/>
</svg>
