<svg width="20" height="18" viewBox="0 0 20 18" fill="none" xmlns="http://www.w3.org/2000/svg">
<path d="M13 1.25244C13 0.173819 11.7255 -0.398411 10.9195 0.318269L6.42794 4.31154C6.29065 4.4336 6.11333 4.50103 5.92961 4.50103H2.25C1.00736 4.50103 0 5.50839 0 6.75103V11.2489C0 12.4915 1.00736 13.4989 2.25 13.4989H5.92956C6.11329 13.4989 6.29063 13.5663 6.42793 13.6884L10.9194 17.6821C11.7255 18.3989 13 17.8267 13 16.748V1.25244ZM7.4246 5.43255L11.5 1.80923V16.1912L7.42465 12.5675C7.01275 12.2012 6.48074 11.9989 5.92956 11.9989H2.25C1.83579 11.9989 1.5 11.6631 1.5 11.2489V6.75103C1.5 6.33681 1.83579 6.00103 2.25 6.00103H5.92961C6.48075 6.00103 7.01272 5.79874 7.4246 5.43255ZM16.9916 2.89977C17.3244 2.65323 17.7941 2.72321 18.0407 3.05606C19.2717 4.71814 20 6.77634 20 9.00243C20 11.2285 19.2717 13.2867 18.0407 14.9488C17.7941 15.2817 17.3244 15.3517 16.9916 15.1051C16.6587 14.8586 16.5888 14.3889 16.8353 14.056C17.8815 12.6435 18.5 10.8963 18.5 9.00243C18.5 7.10863 17.8815 5.36141 16.8353 3.94885C16.5888 3.616 16.6587 3.14631 16.9916 2.89977ZM15.143 5.37177C15.5072 5.17458 15.9624 5.31002 16.1596 5.67428C16.6958 6.66489 17 7.79923 17 9.00243C17 10.2056 16.6958 11.34 16.1596 12.3306C15.9624 12.6948 15.5072 12.8303 15.143 12.6331C14.7787 12.4359 14.6432 11.9807 14.8404 11.6165C15.2609 10.8397 15.5 9.95013 15.5 9.00243C15.5 8.05473 15.2609 7.16513 14.8404 6.38837C14.6432 6.02411 14.7787 5.56896 15.143 5.37177Z" fill="#007DFE"/>
</svg>
