<svg width="223" height="69" viewBox="0 0 223 69" fill="none" xmlns="http://www.w3.org/2000/svg">
<path d="M16.776 43.528C14.168 43.528 11.96 43.024 10.152 42.016C8.36 41.008 6.912 39.672 5.808 38.008C4.72 36.328 3.928 34.464 3.432 32.416C2.936 30.368 2.688 28.296 2.688 26.2C2.688 24.216 2.936 22.208 3.432 20.176C3.944 18.128 4.752 16.248 5.856 14.536C6.976 12.808 8.432 11.424 10.224 10.384C12.016 9.344 14.2 8.824 16.776 8.824C18.904 8.824 20.752 9.184 22.32 9.904C23.888 10.608 25.184 11.528 26.208 12.664C27.248 13.784 28.04 14.96 28.584 16.192L23.016 18.784C22.472 17.952 21.912 17.24 21.336 16.648C20.76 16.04 20.104 15.576 19.368 15.256C18.648 14.92 17.784 14.752 16.776 14.752C15.336 14.752 14.128 15.104 13.152 15.808C12.176 16.496 11.392 17.408 10.8 18.544C10.208 19.68 9.784 20.92 9.528 22.264C9.272 23.608 9.144 24.92 9.144 26.2C9.144 27.56 9.288 28.912 9.576 30.256C9.864 31.6 10.32 32.824 10.944 33.928C11.568 35.032 12.36 35.92 13.32 36.592C14.28 37.248 15.432 37.576 16.776 37.576C18.216 37.576 19.424 37.176 20.4 36.376C21.392 35.56 22.272 34.52 23.04 33.256L28.728 35.392C28.008 36.944 27.104 38.336 26.016 39.568C24.928 40.8 23.624 41.768 22.104 42.472C20.584 43.176 18.808 43.528 16.776 43.528ZM41.6483 43.576C38.9763 43.576 36.8563 42.856 35.2883 41.416C33.7363 39.96 32.9603 37.992 32.9603 35.512C32.9603 33.912 33.3603 32.512 34.1603 31.312C34.9763 30.096 36.1043 29.16 37.5443 28.504C39.0003 27.832 40.6963 27.496 42.6323 27.496C43.7043 27.496 44.7363 27.6 45.7283 27.808C46.7363 28 47.6163 28.28 48.3683 28.648V27.112C48.3683 25.736 47.9763 24.704 47.1923 24.016C46.4243 23.312 45.2883 22.96 43.7843 22.96C42.5843 22.96 41.3523 23.176 40.0883 23.608C38.8243 24.04 37.5443 24.68 36.2483 25.528L34.4483 20.8C35.8563 19.872 37.4243 19.16 39.1523 18.664C40.8803 18.152 42.6243 17.896 44.3843 17.896C47.6803 17.896 50.1443 18.68 51.7763 20.248C53.4083 21.8 54.2243 24.12 54.2243 27.208V43H48.3683V41.032C47.5363 41.864 46.5443 42.496 45.3923 42.928C44.2563 43.36 43.0083 43.576 41.6483 43.576ZM43.0403 38.512C44.0323 38.512 44.9843 38.32 45.8963 37.936C46.8243 37.536 47.6483 36.976 48.3683 36.256V33.352C47.6803 33.016 46.9123 32.76 46.0643 32.584C45.2323 32.392 44.4003 32.296 43.5683 32.296C42.0803 32.296 40.9043 32.584 40.0403 33.16C39.1923 33.72 38.7683 34.504 38.7683 35.512C38.7683 36.456 39.1443 37.192 39.8963 37.72C40.6483 38.248 41.6963 38.512 43.0403 38.512ZM61.4003 43V18.472H67.4003V21.112C67.8483 20.168 68.5523 19.4 69.5123 18.808C70.4723 18.2 71.4803 17.896 72.5363 17.896C74.2803 17.896 75.7523 18.496 76.9523 19.696L76.1123 25.192C75.4563 24.648 74.8163 24.264 74.1923 24.04C73.5683 23.816 72.8803 23.704 72.1283 23.704C71.1363 23.704 70.2883 23.936 69.5843 24.4C68.8803 24.864 68.3363 25.536 67.9523 26.416C67.5843 27.296 67.4003 28.352 67.4003 29.584V43H61.4003ZM90.2074 43.576C87.8554 43.576 85.8234 43.048 84.1114 41.992C82.4154 40.936 81.1034 39.448 80.1754 37.528C79.2634 35.592 78.8074 33.32 78.8074 30.712C78.8074 28.072 79.2714 25.792 80.1994 23.872C81.1434 21.952 82.4634 20.48 84.1594 19.456C85.8714 18.416 87.8874 17.896 90.2074 17.896C92.1914 17.896 93.9914 18.312 95.6074 19.144C97.2234 19.976 98.5114 21.256 99.4714 22.984C100.431 24.696 100.911 26.88 100.911 29.536C100.911 29.952 100.895 30.464 100.863 31.072C100.847 31.664 100.807 32.264 100.743 32.872H84.7354C84.7994 33.992 85.0554 34.976 85.5034 35.824C85.9674 36.656 86.5994 37.304 87.3994 37.768C88.1994 38.232 89.1434 38.464 90.2314 38.464C91.3994 38.464 92.4154 38.272 93.2794 37.888C94.1434 37.488 94.9594 36.856 95.7274 35.992L99.1834 39.568C98.1274 40.768 96.8554 41.736 95.3674 42.472C93.8794 43.208 92.1594 43.576 90.2074 43.576ZM84.7594 28.192H95.1034C95.0234 27.12 94.7834 26.2 94.3834 25.432C93.9834 24.648 93.4234 24.048 92.7034 23.632C91.9834 23.216 91.1114 23.008 90.0874 23.008C88.6794 23.008 87.4794 23.44 86.4874 24.304C85.4954 25.168 84.9194 26.464 84.7594 28.192ZM119.432 43.528C116.824 43.528 114.616 43.024 112.808 42.016C111.016 41.008 109.568 39.672 108.464 38.008C107.376 36.328 106.584 34.464 106.088 32.416C105.592 30.368 105.344 28.296 105.344 26.2C105.344 24.216 105.592 22.208 106.088 20.176C106.6 18.128 107.408 16.248 108.512 14.536C109.632 12.808 111.088 11.424 112.88 10.384C114.672 9.344 116.856 8.824 119.432 8.824C121.56 8.824 123.408 9.184 124.976 9.904C126.544 10.608 127.84 11.528 128.864 12.664C129.904 13.784 130.696 14.96 131.24 16.192L125.672 18.784C125.128 17.952 124.568 17.24 123.992 16.648C123.416 16.04 122.76 15.576 122.024 15.256C121.304 14.92 120.44 14.752 119.432 14.752C117.992 14.752 116.784 15.104 115.808 15.808C114.832 16.496 114.048 17.408 113.456 18.544C112.864 19.68 112.44 20.92 112.184 22.264C111.928 23.608 111.8 24.92 111.8 26.2C111.8 27.56 111.944 28.912 112.232 30.256C112.52 31.6 112.976 32.824 113.6 33.928C114.224 35.032 115.016 35.92 115.976 36.592C116.936 37.248 118.088 37.576 119.432 37.576C120.872 37.576 122.08 37.176 123.056 36.376C124.048 35.56 124.928 34.52 125.696 33.256L131.384 35.392C130.664 36.944 129.76 38.336 128.672 39.568C127.584 40.8 126.28 41.768 124.76 42.472C123.24 43.176 121.464 43.528 119.432 43.528ZM173.057 43V18.472H179.057V21.112C179.505 20.168 180.209 19.4 181.169 18.808C182.129 18.2 183.137 17.896 184.193 17.896C185.937 17.896 187.409 18.496 188.609 19.696L187.769 25.192C187.113 24.648 186.473 24.264 185.849 24.04C185.225 23.816 184.537 23.704 183.785 23.704C182.793 23.704 181.945 23.936 181.241 24.4C180.537 24.864 179.993 25.536 179.609 26.416C179.241 27.296 179.057 28.352 179.057 29.584V43H173.057ZM201.864 43.576C199.512 43.576 197.48 43.048 195.768 41.992C194.072 40.936 192.76 39.448 191.832 37.528C190.92 35.592 190.464 33.32 190.464 30.712C190.464 28.072 190.928 25.792 191.856 23.872C192.8 21.952 194.12 20.48 195.816 19.456C197.528 18.416 199.544 17.896 201.864 17.896C203.848 17.896 205.648 18.312 207.264 19.144C208.88 19.976 210.168 21.256 211.128 22.984C212.088 24.696 212.568 26.88 212.568 29.536C212.568 29.952 212.552 30.464 212.52 31.072C212.504 31.664 212.464 32.264 212.4 32.872H196.392C196.456 33.992 196.712 34.976 197.16 35.824C197.624 36.656 198.256 37.304 199.056 37.768C199.856 38.232 200.8 38.464 201.888 38.464C203.056 38.464 204.072 38.272 204.936 37.888C205.8 37.488 206.616 36.856 207.384 35.992L210.84 39.568C209.784 40.768 208.512 41.736 207.024 42.472C205.536 43.208 203.816 43.576 201.864 43.576ZM196.416 28.192H206.76C206.68 27.12 206.44 26.2 206.04 25.432C205.64 24.648 205.08 24.048 204.36 23.632C203.64 23.216 202.768 23.008 201.744 23.008C200.336 23.008 199.136 23.44 198.144 24.304C197.152 25.168 196.576 26.464 196.416 28.192Z" fill="white"/>
<path d="M140.524 29C140.524 36.8581 146.076 43.3742 153.329 44.5548C152.091 44.8452 150.801 45 149.477 45C140.372 45 133 37.8387 133 29C133 20.1613 140.372 13 149.471 13C150.801 13 152.091 13.1548 153.322 13.4452C146.069 14.6258 140.524 21.1419 140.524 29ZM160.204 35.471C155.063 39.0452 148.319 38.5355 144.296 34.529C144.66 35.4387 145.136 36.3161 145.732 37.1419C149.808 42.8323 157.802 44.1935 163.579 40.1742C169.356 36.1548 170.733 28.2839 166.656 22.5871C166.061 21.7548 165.379 21.0194 164.638 20.3806C167.113 25.4645 165.346 31.8968 160.204 35.471ZM145.725 19.729C145.633 19.7935 145.547 19.8645 145.461 19.929C149.716 18.7806 154.454 20.1871 157.299 23.8323C159.662 26.8645 160.138 30.7097 158.914 34.0258C162.666 30.4 163.387 24.8581 160.39 21.0065C157.081 16.7806 150.523 16.2065 145.725 19.729ZM152.588 26.9355C152.296 26.9355 152.058 26.7032 152.058 26.4194V23.8387C152.058 23.5548 151.82 23.3226 151.529 23.3226H148.352C148.061 23.3226 147.823 23.5548 147.823 23.8387V26.4194C147.823 26.7032 147.585 26.9355 147.294 26.9355H144.647C144.356 26.9355 144.117 27.1677 144.117 27.4516V30.5484C144.117 30.8323 144.356 31.0645 144.647 31.0645H147.294C147.585 31.0645 147.823 31.2968 147.823 31.5806V34.1613C147.823 34.4452 148.061 34.6774 148.352 34.6774H151.529C151.82 34.6774 152.058 34.4452 152.058 34.1613V31.5806C152.058 31.2968 152.296 31.0645 152.588 31.0645H155.235C155.526 31.0645 155.764 30.8323 155.764 30.5484V27.4516C155.764 27.1677 155.526 26.9355 155.235 26.9355H152.588Z" fill="white"/>
</svg>
