<svg width="22" height="24" viewBox="0 0 22 24" fill="none" xmlns="http://www.w3.org/2000/svg">
<path d="M9.88882 3.25628C10.3428 2.27461 11.6543 2.2746 12.1083 3.25628L14.2698 7.93063L19.1029 8.6802C20.1179 8.83762 20.5232 10.169 19.7887 10.9331L16.2914 14.5715L17.117 19.7092C17.2904 20.7881 16.2293 21.611 15.3214 21.1015L10.9985 18.6759L6.67565 21.1015C5.76779 21.611 4.70671 20.7881 4.8801 19.7092L5.7057 14.5715L2.2084 10.9331C1.47392 10.169 1.87922 8.83762 2.89424 8.6802L7.72739 7.93063L9.88882 3.25628ZM10.9985 4.17241L8.92841 8.6493C8.74816 9.03913 8.39971 9.30932 7.99665 9.37183L3.36767 10.0897L6.71723 13.5746C7.00889 13.8779 7.14198 14.3151 7.07313 14.7436L6.28241 19.6642L10.4227 17.341C10.7832 17.1386 11.2139 17.1386 11.5744 17.341L15.7147 19.6642L14.924 14.7436C14.8551 14.3151 14.9882 13.8779 15.2798 13.5746L18.6294 10.0897L14.0004 9.37183C13.5974 9.30932 13.249 9.03913 13.0687 8.6493L10.9985 4.17241Z" fill="#FBBC05"/>
</svg>
