<svg width="19" height="21" viewBox="0 0 19 21" fill="none" xmlns="http://www.w3.org/2000/svg">
<path d="M16.8516 2.81618V2.31618V2.81618ZM18 3.87877H17.5H18ZM1 3.87876L0.5 3.87876V3.87876H1ZM2.14837 2.81617V3.31617V2.81617ZM16.8516 19.981V19.481V19.981ZM18 18.9184H18.5H18ZM4.97996 17.3598H5.47996H4.97996ZM3.8303 16.2972L3.8303 16.7972L3.83082 16.7972L3.8303 16.2972ZM1.44219 16.711L1.10188 17.0774L1.44219 16.711ZM6.42064 19.981V20.481V19.981ZM3.93385 19.0219L3.59435 19.389H3.59435L3.93385 19.0219ZM1.57627 7.76471C1.30013 7.76471 1.07627 7.98856 1.07627 8.26471C1.07627 8.54085 1.30013 8.76471 1.57627 8.76471V7.76471ZM17.8559 8.76471C18.1321 8.76471 18.3559 8.54085 18.3559 8.26471C18.3559 7.98856 18.1321 7.76471 17.8559 7.76471V8.76471ZM5.76762 5.01787C5.76762 5.29402 5.99148 5.51787 6.26762 5.51787C6.54376 5.51787 6.76762 5.29402 6.76762 5.01787H5.76762ZM6.76762 1C6.76762 0.723858 6.54376 0.5 6.26762 0.5C5.99148 0.5 5.76762 0.723858 5.76762 1H6.76762ZM12.6829 5.01787C12.6829 5.29402 12.9067 5.51787 13.1829 5.51787C13.459 5.51787 13.6829 5.29402 13.6829 5.01787H12.6829ZM13.6829 1C13.6829 0.723858 13.459 0.5 13.1829 0.5C12.9067 0.5 12.6829 0.723858 12.6829 1H13.6829ZM6.18644 11.3971C5.9103 11.3971 5.68644 11.6209 5.68644 11.8971C5.68644 12.1732 5.9103 12.3971 6.18644 12.3971V11.3971ZM6.33051 12.3971C6.60665 12.3971 6.83051 12.1732 6.83051 11.8971C6.83051 11.6209 6.60665 11.3971 6.33051 11.3971V12.3971ZM6.18644 14.4706C5.9103 14.4706 5.68644 14.6944 5.68644 14.9706C5.68644 15.2467 5.9103 15.4706 6.18644 15.4706V14.4706ZM6.33051 15.4706C6.60665 15.4706 6.83051 15.2467 6.83051 14.9706C6.83051 14.6944 6.60665 14.4706 6.33051 14.4706V15.4706ZM9.64407 11.3971C9.36792 11.3971 9.14407 11.6209 9.14407 11.8971C9.14407 12.1732 9.36792 12.3971 9.64407 12.3971V11.3971ZM9.78813 12.3971C10.0643 12.3971 10.2881 12.1732 10.2881 11.8971C10.2881 11.6209 10.0643 11.3971 9.78813 11.3971V12.3971ZM9.64407 14.4706C9.36792 14.4706 9.14407 14.6944 9.14407 14.9706C9.14407 15.2467 9.36792 15.4706 9.64407 15.4706V14.4706ZM9.78813 15.4706C10.0643 15.4706 10.2881 15.2467 10.2881 14.9706C10.2881 14.6944 10.0643 14.4706 9.78813 14.4706V15.4706ZM13.1017 11.3971C12.8256 11.3971 12.6017 11.6209 12.6017 11.8971C12.6017 12.1732 12.8256 12.3971 13.1017 12.3971V11.3971ZM13.2458 12.3971C13.5219 12.3971 13.7458 12.1732 13.7458 11.8971C13.7458 11.6209 13.5219 11.3971 13.2458 11.3971V12.3971ZM13.1017 14.4706C12.8256 14.4706 12.6017 14.6944 12.6017 14.9706C12.6017 15.2467 12.8256 15.4706 13.1017 15.4706V14.4706ZM13.2458 15.4706C13.5219 15.4706 13.7458 15.2467 13.7458 14.9706C13.7458 14.6944 13.5219 14.4706 13.2458 14.4706V15.4706ZM16.8516 19.481H6.42064V20.481H16.8516V19.481ZM1.5 15.7041V3.87876H0.5L0.5 15.7041H1.5ZM2.14837 3.31617L16.8516 3.31618V2.31618L2.14837 2.31617V3.31617ZM17.5 3.87877L17.5 18.9184H18.5L18.5 3.87877H17.5ZM16.8516 3.31618C17.247 3.31618 17.5 3.6039 17.5 3.87877H18.5C18.5 2.97993 17.7247 2.31618 16.8516 2.31618V3.31618ZM1.5 3.87876C1.5 3.6039 1.75302 3.31617 2.14837 3.31617V2.31617C1.27526 2.31617 0.5 2.97993 0.5 3.87876L1.5 3.87876ZM4.27335 18.6549C3.46275 17.9052 2.37984 16.8997 1.78249 16.3447L1.10188 17.0774C1.69924 17.6323 2.78287 18.6385 3.59435 19.389L4.27335 18.6549ZM16.8516 20.481C17.7247 20.481 18.5 19.8172 18.5 18.9184H17.5C17.5 19.1933 17.247 19.481 16.8516 19.481V20.481ZM4.47996 17.3598L4.47996 20H5.47996L5.47996 17.3598H4.47996ZM1 16.7972L3.8303 16.7972L3.8303 15.7972L1 15.7972L1 16.7972ZM5.47996 17.3598C5.47996 16.4602 4.70354 15.7963 3.82978 15.7972L3.83082 16.7972C4.22653 16.7968 4.47996 17.0847 4.47996 17.3598H5.47996ZM0.5 15.7041C0.5 16.2255 0.717738 16.7205 1.10188 17.0774L1.78249 16.3447C1.59957 16.1748 1.5 15.9442 1.5 15.7041H0.5ZM6.42064 19.481C6.10143 19.481 5.68594 19.3928 5.27429 19.2345C4.86194 19.0759 4.50049 18.865 4.27335 18.6549L3.59435 19.389C3.94298 19.7115 4.42709 19.98 4.91529 20.1678C5.40417 20.3559 5.94419 20.481 6.42064 20.481V19.481ZM1.57627 8.76471H17.8559V7.76471H1.57627V8.76471ZM6.76762 5.01787V1H5.76762V5.01787H6.76762ZM13.6829 5.01787V1H12.6829V5.01787H13.6829ZM6.18644 12.3971H6.33051V11.3971H6.18644V12.3971ZM6.18644 15.4706H6.33051V14.4706H6.18644V15.4706ZM9.64407 12.3971H9.78813V11.3971H9.64407V12.3971ZM9.64407 15.4706H9.78813V14.4706H9.64407V15.4706ZM13.1017 12.3971H13.2458V11.3971H13.1017V12.3971ZM13.1017 15.4706H13.2458V14.4706H13.1017V15.4706Z" fill="white"/>
</svg>
