<svg width="78" height="78" viewBox="0 0 78 78" fill="none" xmlns="http://www.w3.org/2000/svg">
<path d="M57.4336 45.4073C61.4124 45.4073 64.6376 48.6324 64.6376 52.6113V55.5532C64.6376 57.39 64.0635 59.1807 62.9955 60.675C58.0435 67.6045 49.9573 71.0375 39.0013 71.0375C28.0427 71.0375 19.9608 67.6032 15.0207 60.6699C13.9573 59.1775 13.3859 57.3907 13.3859 55.558V52.6113C13.3859 48.6324 16.6111 45.4073 20.5897 45.4073H57.4336ZM39.0013 6.9823C47.847 6.9823 55.018 14.1532 55.018 22.999C55.018 31.8447 47.847 39.0157 39.0013 39.0157C30.1554 39.0157 22.9845 31.8447 22.9845 22.999C22.9845 14.1532 30.1554 6.9823 39.0013 6.9823Z" fill="white"/>
</svg>
