<svg width="20" height="14" viewBox="0 0 20 14" fill="none" xmlns="http://www.w3.org/2000/svg">
<path d="M3.25 0C1.45507 0 0 1.45507 0 3.25V10.75C0 12.5449 1.45507 14 3.25 14H10.75C12.5449 14 14 12.5449 14 10.75V10.438L17.2575 12.6872C18.4183 13.4887 20.0018 12.6578 20.0018 11.2471V2.75204C20.0018 1.34137 18.4183 0.51044 17.2575 1.31197L14 3.56118V3.25C14 1.45507 12.5449 0 10.75 0H3.25ZM14 5.384L18.1098 2.54632C18.2756 2.43181 18.5018 2.55051 18.5018 2.75204V11.2471C18.5018 11.4486 18.2756 11.5673 18.1098 11.4528L14 8.6151V5.384ZM1.5 3.25C1.5 2.2835 2.2835 1.5 3.25 1.5H10.75C11.7165 1.5 12.5 2.2835 12.5 3.25V10.75C12.5 11.7165 11.7165 12.5 10.75 12.5H3.25C2.2835 12.5 1.5 11.7165 1.5 10.75V3.25Z" fill="white"/>
</svg>
