<svg width="26" height="26" viewBox="0 0 26 26" fill="none" xmlns="http://www.w3.org/2000/svg">
<path d="M19.678 3.25972C20.0378 3.27243 20.4047 3.36544 20.7585 3.54805C21.1123 3.73065 21.4443 3.96252 21.7538 4.26364C22.2762 4.7724 22.6469 5.32583 22.8752 5.94428C23.1039 6.55273 23.2108 7.20691 23.1861 7.90648C23.1501 8.92584 22.8718 10.0067 22.3415 11.1387C21.8112 12.2707 21.111 13.3966 20.2412 14.5066C19.3612 15.6262 18.3933 16.6827 17.3272 17.6857C16.2515 18.6783 15.1293 19.5693 13.9607 20.3585C12.7925 21.1378 11.6299 21.7571 10.4836 22.1969C9.32739 22.6363 8.2296 22.8377 7.19025 22.801C6.51067 22.777 5.86531 22.6341 5.27416 22.3731C4.67301 22.1117 4.12678 21.7121 3.64581 21.1648C3.0388 20.503 2.7537 19.7925 2.77983 19.0529C2.78972 18.7731 2.85957 18.4954 2.98832 18.2498C3.11742 17.9942 3.30543 17.7707 3.57163 17.6L6.9215 15.3969C7.1777 15.2258 7.41215 15.104 7.63519 15.0218C7.84824 14.9393 8.05987 14.8968 8.24975 14.9035C8.4896 14.9119 8.72698 14.9904 8.95189 15.1384C9.17716 15.2764 9.4103 15.4748 9.64168 15.7231L10.4044 16.5105C10.5104 16.6244 10.6386 16.6789 10.7985 16.6846C10.8784 16.6874 10.9487 16.6799 11.0294 16.6627C11.1104 16.6356 11.1714 16.6077 11.2321 16.5898C11.5682 16.4216 12.0089 16.127 12.5441 15.7056C13.0797 15.2742 13.6263 14.8132 14.1743 14.3123C14.7231 13.7913 15.2311 13.289 15.6995 12.7752C16.1576 12.271 16.4726 11.8519 16.6645 11.5185C16.6863 11.4692 16.7184 11.4103 16.7508 11.3414C16.7836 11.2625 16.7964 11.1829 16.7996 11.093C16.8056 10.9231 16.7503 10.791 16.6442 10.6772L15.9215 9.89122C15.6805 9.63255 15.4991 9.38599 15.3873 9.15189C15.2555 8.91709 15.1937 8.68477 15.2025 8.43492C15.2092 8.24504 15.2562 8.04658 15.3539 7.82989C15.4516 7.61321 15.5897 7.38794 15.7684 7.1441L18.2338 3.91914C18.4229 3.66565 18.6391 3.49318 18.8928 3.39208C19.1462 3.30097 19.3982 3.24983 19.678 3.25972Z" stroke="white" stroke-width="1.5" stroke-miterlimit="10"/>
</svg>
