<svg width="40" height="40" viewBox="0 0 40 40" fill="none" xmlns="http://www.w3.org/2000/svg">
<circle cx="20" cy="20" r="20" fill="#007DFE"/>
<path d="M26.25 19C26.6297 19 26.9435 19.2822 26.9932 19.6482L27 19.75V20.25C27 23.8094 24.245 26.7254 20.751 26.9817L20.75 29.25C20.75 29.6642 20.4142 30 20 30C19.6203 30 19.3065 29.7178 19.2568 29.3518L19.25 29.25V26.9818C15.8332 26.7316 13.1228 23.938 13.0041 20.4863L13 20.25V19.75C13 19.3358 13.3358 19 13.75 19C14.1297 19 14.4435 19.2822 14.4932 19.6482L14.5 19.75V20.25C14.5 23.077 16.7344 25.3821 19.5336 25.4956L19.75 25.5H20.25C23.077 25.5 25.3821 23.2656 25.4956 20.4664L25.5 20.25V19.75C25.5 19.3358 25.8358 19 26.25 19ZM20 10C22.2091 10 24 11.7909 24 14V20C24 22.2091 22.2091 24 20 24C17.7909 24 16 22.2091 16 20V14C16 11.7909 17.7909 10 20 10Z" fill="white"/>
</svg>
