<svg width="21" height="18" viewBox="0 0 21 18" fill="none" xmlns="http://www.w3.org/2000/svg">
<path d="M5.42308 0C3.6128 0 2.1453 1.45507 2.1453 3.25V5.93934L1.41948 5.21967C1.12408 4.92678 0.645145 4.92678 0.349752 5.21967C0.0543553 5.51256 0.0543553 5.98744 0.349752 6.28033L2.36685 8.2803C2.66224 8.5732 3.14118 8.5732 3.43657 8.2803L5.45367 6.28033C5.74906 5.98744 5.74906 5.51256 5.45367 5.21967C5.15827 4.92678 4.67933 4.92678 4.38394 5.21967L3.65812 5.93934V3.25C3.65812 2.2835 4.44832 1.5 5.42308 1.5H17.0214C17.9961 1.5 18.7863 2.2835 18.7863 3.25V4H5.17037C5.13651 4 5.10317 4.00221 5.07048 4.00648C5.47018 4.04059 5.86038 4.20928 6.16625 4.51256C6.44658 4.79052 6.6129 5.13871 6.6652 5.5H18.7863V14.75C18.7863 15.7165 17.9961 16.5 17.0214 16.5H5.42308C4.44832 16.5 3.65812 15.7165 3.65812 14.75V10.75C3.65812 10.3358 3.31946 10 2.90171 10C2.48396 10 2.1453 10.3358 2.1453 10.75V14.75C2.1453 16.5449 3.6128 18 5.42308 18H17.0214C18.8316 18 20.2991 16.5449 20.2991 14.75V3.25C20.2991 1.45507 18.8316 0 17.0214 0H5.42308ZM6.93533 11.5C7.63159 11.5 8.19602 12.0596 8.19602 12.75C8.19602 13.4404 7.63159 14 6.93533 14C6.23907 14 5.67465 13.4404 5.67465 12.75C5.67465 12.0596 6.23907 11.5 6.93533 11.5ZM11.2216 11.5C11.9179 11.5 12.4823 12.0596 12.4823 12.75C12.4823 13.4404 11.9179 14 11.2216 14C10.5254 14 9.96093 13.4404 9.96093 12.75C9.96093 12.0596 10.5254 11.5 11.2216 11.5ZM6.93533 7.5C7.63159 7.5 8.19602 8.0596 8.19602 8.75C8.19602 9.4404 7.63159 10 6.93533 10C6.23907 10 5.67465 9.4404 5.67465 8.75C5.67465 8.0596 6.23907 7.5 6.93533 7.5ZM11.2216 7.5C11.9179 7.5 12.4823 8.0596 12.4823 8.75C12.4823 9.4404 11.9179 10 11.2216 10C10.5254 10 9.96093 9.4404 9.96093 8.75C9.96093 8.0596 10.5254 7.5 11.2216 7.5ZM15.5079 7.5C16.2042 7.5 16.7686 8.0596 16.7686 8.75C16.7686 9.4404 16.2042 10 15.5079 10C14.8117 10 14.2473 9.4404 14.2473 8.75C14.2473 8.0596 14.8117 7.5 15.5079 7.5Z" fill="white"/>
</svg>
